<?xml version="1.0" encoding="UTF-8" standalone="no"?>
<!-- Created with Inkscape (http://www.inkscape.org/) -->

<svg
   xmlns:dc="http://purl.org/dc/elements/1.1/"
   xmlns:cc="http://creativecommons.org/ns#"
   xmlns:rdf="http://www.w3.org/1999/02/22-rdf-syntax-ns#"
   xmlns:svg="http://www.w3.org/2000/svg"
   xmlns="http://www.w3.org/2000/svg"
   xmlns:sodipodi="http://sodipodi.sourceforge.net/DTD/sodipodi-0.dtd"
   xmlns:inkscape="http://www.inkscape.org/namespaces/inkscape"
   width="640"
   height="320"
   viewBox="0 0 169.33333 84.666669"
   version="1.1"
   id="svg8"
   inkscape:version="0.92.1 r15371"
   sodipodi:docname="whitelogo2.svg">
  <defs
     id="defs2" />
  <sodipodi:namedview
     id="base"
     pagecolor="#ffffff"
     bordercolor="#666666"
     borderopacity="1.0"
     inkscape:pageopacity="0.0"
     inkscape:pageshadow="2"
     inkscape:zoom="0.7"
     inkscape:cx="392.54556"
     inkscape:cy="534.19003"
     inkscape:document-units="mm"
     inkscape:current-layer="layer1"
     showgrid="true"
     units="px"
     inkscape:snap-bbox="true"
     inkscape:bbox-nodes="true"
     inkscape:bbox-paths="true"
     inkscape:snap-bbox-edge-midpoints="true"
     inkscape:snap-bbox-midpoints="true"
     inkscape:snap-intersection-paths="true"
     inkscape:object-paths="true"
     inkscape:snap-smooth-nodes="true"
     inkscape:snap-midpoints="true"
     inkscape:snap-object-midpoints="true"
     inkscape:snap-center="true"
     inkscape:snap-text-baseline="true"
     inkscape:snap-page="true"
     inkscape:window-width="1916"
     inkscape:window-height="1040"
     inkscape:window-x="0"
     inkscape:window-y="18"
     inkscape:window-maximized="0">
    <inkscape:grid
       type="xygrid"
       id="grid10" />
  </sodipodi:namedview>
  <metadata
     id="metadata5">
    <rdf:RDF>
      <cc:Work
         rdf:about="">
        <dc:format>image/svg+xml</dc:format>
        <dc:type
           rdf:resource="http://purl.org/dc/dcmitype/StillImage" />
        <dc:title></dc:title>
      </cc:Work>
    </rdf:RDF>
  </metadata>
  <g
     inkscape:label="Layer 1"
     inkscape:groupmode="layer"
     id="layer1"
     transform="translate(0,-212.33332)">
    <path
       style="fill:#000000;stroke:#000000;stroke-width:0.26458332px;stroke-linecap:butt;stroke-linejoin:miter;stroke-opacity:1"
       d="m 0,241.43749 v 27.78125 c 0,0 0,2.64583 2.6458333,2.64583 2.6458333,0 2.6458333,-2.64583 2.6458333,-2.64583 V 242.7604 Z"
       id="path26"
       inkscape:connector-curvature="0" />
    <path
       style="fill:#000000;stroke:#000000;stroke-width:0.26458332px;stroke-linecap:butt;stroke-linejoin:miter;stroke-opacity:1"
       d="m 3.8047268,254.90481 c 0,-1.32292 16.5279582,-3.2648 14.5520832,6.61458 -2.645833,13.22917 7.9375,9.26042 7.9375,9.26042 0,0 5.291666,-2.64583 -2.645834,-11.90625 -7.9375,-9.26042 -19.8437492,-9.26042 -19.8437492,-9.26042 z"
       id="path28"
       inkscape:connector-curvature="0"
       sodipodi:nodetypes="cscscc" />
    <path
       style="fill:#000000;stroke:#000000;stroke-width:0.26458332px;stroke-linecap:butt;stroke-linejoin:miter;stroke-opacity:1"
       d="m 35.454166,234.8229 17.462501,-9.26041 v 0 c 0,0 -5.556251,-1e-5 -12.170834,17.19791 -5.7774,15.02124 5.291666,34.39584 5.291666,34.39584 C 15.875,257.31249 29.104167,238.79165 35.454166,234.8229 Z"
       id="path30"
       inkscape:connector-curvature="0"
       sodipodi:nodetypes="cccscc" />
    <path
       style="fill:#000000;stroke:#000000;stroke-width:0.26458332px;stroke-linecap:butt;stroke-linejoin:miter;stroke-opacity:1"
       d="M 44.979167,278.47915 0,275.83332 c 0,0 37.041667,0 44.979167,-7.9375 11.380158,-11.38016 -7.9375,-34.39583 -7.9375,-34.39583 27.78125,23.8125 17.19792,35.71874 7.9375,44.97916 z"
       id="path30-3"
       inkscape:connector-curvature="0"
       sodipodi:nodetypes="ccscc" />
    <path
       style="fill:#000000;stroke:#000000;stroke-width:0.15338424px;stroke-linecap:butt;stroke-linejoin:miter;stroke-opacity:1"
       d="m 76.627677,259.8178 c -7.133078,5.27721 -31.64851,18.66135 -31.64851,18.66135 0,0 19.533363,-11.98277 22.732162,-19.98065 3.492863,-8.73312 -8.490466,-18.46045 -8.490466,-18.46045 0,0 -0.425881,-18.48003 13.840275,-9.24491 14.266153,9.23512 8.916347,18.47024 8.916347,18.47024 -0.298674,-10.76223 -6.087872,-14.517 -10.585788,-8.96075 -1.322917,-1.5875 -2.730672,-1.97467 -2.983796,-2.03485 -11.904908,-2.83078 17.107872,13.32558 8.219776,21.55002 z"
       id="path49"
       inkscape:connector-curvature="0"
       sodipodi:nodetypes="ccscsccsc" />
    <rect
       style="fill:#000000;stroke:none;stroke-width:0.26458332"
       id="rect51"
       width="26.458334"
       height="21.166664"
       x="84.666664"
       y="236.14586"
       ry="10.583332" />
    <rect
       style="fill:#ffffff;stroke:none;stroke-width:0.26458332"
       id="rect53"
       width="10.583336"
       height="5.2916751"
       x="92.604164"
       y="244.08336"
       ry="2.6458333" />
    <path
       style="fill:#000000;stroke:#000000;stroke-width:0.26458332px;stroke-linecap:butt;stroke-linejoin:miter;stroke-opacity:1"
       d="m 84.666664,246.72914 c 0,0 1.567699,19.51422 -6.614581,22.4896 -29.104166,10.58333 -64.822916,11.90625 6.614581,3.96873 10.842326,-1.20471 26.458316,2.64583 26.458316,0 0,-2.64583 0,-10.58333 -7.9375,-10.58333 -7.937483,0 -13.229147,5.29168 -15.87498,5.29168 -2.645834,0 -2.645836,-21.16668 -2.645836,-21.16668 z"
       id="path55"
       inkscape:connector-curvature="0"
       sodipodi:nodetypes="csssssc" />
    <rect
       style="fill:#000000;stroke:none;stroke-width:0.26458332"
       id="rect51-6"
       width="26.458334"
       height="21.166664"
       x="71.995911"
       y="262.84384"
       ry="10.583332"
       transform="rotate(-14.23181)" />
    <rect
       style="fill:#ffffff;stroke:none;stroke-width:0.26458332"
       id="rect53-7"
       width="10.583337"
       height="5.2916751"
       x="79.933411"
       y="270.78134"
       ry="2.6458333"
       transform="rotate(-14.23181)" />
    <path
       style="fill:#000000;stroke:#000000;stroke-width:0.26458332px;stroke-linecap:butt;stroke-linejoin:miter;stroke-opacity:1"
       d="m 137.00713,247.33563 c 0,0 -9.00988,25.8891 1.89912,25.85186 9.26042,-5.29167 -7.9375,9.26041 15.875,5.29166 1.17718,-0.19619 -4.411,-2.49314 -5.29167,-5.29166 -0.86,-2.73287 2.98845,-5.9631 3.96875,-6.61459 4.80169,-3.1911 16.01324,1.14037 15.69975,-0.0956 -0.65046,-2.56463 -2.60186,-10.25852 -10.29574,-8.30712 -7.69389,1.9514 -9.60805,5.16649 -12.17269,5.81696 -2.56463,0.65047 -9.68252,-16.65148 -9.68252,-16.65148 z"
       id="path55-5"
       inkscape:connector-curvature="0"
       sodipodi:nodetypes="ccssscssc" />
    <path
       style="fill:#000000;stroke:#000000;stroke-width:0.26458332px;stroke-linecap:butt;stroke-linejoin:miter;stroke-opacity:1"
       d="m 103.1875,228.20832 10.58333,10.58333 2.64584,37.04167 -6.35003,7.9375 13.22917,-2.64583 -5.29167,-10.58334 2.64584,-15.875 -7.9375,-29.10416 z"
       id="path78"
       inkscape:connector-curvature="0"
       sodipodi:nodetypes="ccccccccc" />
    <path
       style="fill:#000000;stroke:#000000;stroke-width:0.26458332px;stroke-linecap:butt;stroke-linejoin:miter;stroke-opacity:1"
       d="m 120.64998,233.49999 7.93749,21.16666 -5.29166,18.52084 7.9375,7.9375 2.64583,-42.33334 -2.64583,-18.52083 -5.55623,9.26042 z"
       id="path80"
       inkscape:connector-curvature="0"
       sodipodi:nodetypes="cccccccc" />
    <path
       style="fill:#000000;stroke:#000000;stroke-width:0.26458332px;stroke-linecap:butt;stroke-linejoin:miter;stroke-opacity:1"
       d="m -0.0632347,241.91997 c 0,0 0,-10.58333 10.5833327,-13.22916 10.583333,-2.64584 21.166667,0 21.166667,0 0,0 -10.583334,10.58333 -10.583334,21.16666 0,10.58334 2.645834,2.64584 -7.937499,2.64584 -10.5833337,0 -13.2291667,-10.58334 -13.2291667,-10.58334 z"
       id="path120"
       inkscape:connector-curvature="0" />
    <path
       style="fill:#ffffff;stroke:#000000;stroke-width:0.26458332px;stroke-linecap:butt;stroke-linejoin:miter;stroke-opacity:1"
       d="m 7.9374999,238.79165 c 0,0 0,-2.64583 7.9375001,-5.29166 7.9375,-2.64584 2.645833,0 0,2.64583 -2.645833,2.64583 2.645833,13.22917 2.645833,13.22917 0,0 -5.291666,-2.64584 -5.291666,-5.29167 0,-5.29167 -5.2916671,-5.29167 -5.2916671,-5.29167 z"
       id="path122"
       inkscape:connector-curvature="0"
       sodipodi:nodetypes="ccscsc" />
  </g>
</svg>
