<?xml version="1.0" encoding="UTF-8" standalone="no"?>
<!-- Created with Inkscape (http://www.inkscape.org/) -->

<svg
   xmlns:dc="http://purl.org/dc/elements/1.1/"
   xmlns:cc="http://creativecommons.org/ns#"
   xmlns:rdf="http://www.w3.org/1999/02/22-rdf-syntax-ns#"
   xmlns:svg="http://www.w3.org/2000/svg"
   xmlns="http://www.w3.org/2000/svg"
   xmlns:sodipodi="http://sodipodi.sourceforge.net/DTD/sodipodi-0.dtd"
   xmlns:inkscape="http://www.inkscape.org/namespaces/inkscape"
   width="970mm"
   height="320mm"
   viewBox="0 0 970 320"
   version="1.1"
   id="svg8"
   inkscape:version="0.92.1 r15371"
   sodipodi:docname="whitelogo.svg">
  <defs
     id="defs2" />
  <sodipodi:namedview
     id="base"
     pagecolor="#ffffff"
     bordercolor="#666666"
     borderopacity="1.0"
     inkscape:pageopacity="0.0"
     inkscape:pageshadow="2"
     inkscape:zoom="0.175"
     inkscape:cx="1976.6345"
     inkscape:cy="263.48946"
     inkscape:document-units="mm"
     inkscape:current-layer="layer1"
     showgrid="true"
     inkscape:window-width="1916"
     inkscape:window-height="1040"
     inkscape:window-x="0"
     inkscape:window-y="18"
     inkscape:window-maximized="0"
     inkscape:snap-global="true"
     inkscape:snap-bbox="true"
     inkscape:bbox-nodes="true"
     inkscape:bbox-paths="true"
     inkscape:snap-bbox-edge-midpoints="true"
     inkscape:snap-bbox-midpoints="true"
     inkscape:object-paths="true"
     inkscape:snap-intersection-paths="true"
     inkscape:snap-smooth-nodes="true"
     inkscape:snap-midpoints="true"
     inkscape:snap-object-midpoints="true"
     inkscape:snap-center="true"
     inkscape:snap-text-baseline="true"
     inkscape:snap-page="true"
     showguides="true"
     inkscape:guide-bbox="true">
    <inkscape:grid
       type="xygrid"
       id="grid3699" />
    <sodipodi:guide
       position="-105.83333,336.02082"
       orientation="1,0"
       id="guide4672"
       inkscape:locked="false" />
  </sodipodi:namedview>
  <metadata
     id="metadata5">
    <rdf:RDF>
      <cc:Work
         rdf:about="">
        <dc:format>image/svg+xml</dc:format>
        <dc:type
           rdf:resource="http://purl.org/dc/dcmitype/StillImage" />
        <dc:title />
      </cc:Work>
    </rdf:RDF>
  </metadata>
  <g
     inkscape:label="Layer 1"
     inkscape:groupmode="layer"
     id="layer1"
     transform="translate(0,23)">
    <path
       style="fill:#241c1c;stroke:none;stroke-width:0.32404706"
       id="path3860"
       sodipodi:type="arc"
       sodipodi:cx="47.095837"
       sodipodi:cy="43.000008"
       sodipodi:rx="31.75"
       sodipodi:ry="31.75"
       sodipodi:start="0"
       sodipodi:end="6.2797154"
       d="M 78.845837,43.000008 A 31.75,31.75 0 0 1 47.123379,74.749996 31.75,31.75 0 0 1 15.345884,43.055092 31.75,31.75 0 0 1 47.01321,11.250115 31.75,31.75 0 0 1 78.845646,42.889838 l -31.749809,0.11017 z"
       inkscape:export-xdpi="96"
       inkscape:export-ydpi="96" />
    <rect
       style="fill:#241c1c;stroke:none;stroke-width:0.26458332"
       id="rect3862"
       width="52.916664"
       height="52.916664"
       x="4.7625012"
       y="72.104164"
       ry="26.458332"
       inkscape:export-xdpi="96"
       inkscape:export-ydpi="96" />
    <path
       style="fill:#000000;stroke:none;stroke-width:0.26458332px;stroke-linecap:butt;stroke-linejoin:miter;stroke-opacity:1"
       d="M 52.387502,117.08334 10.054167,244.08335 36.512503,254.66668 62.970836,111.79167 Z"
       id="path3864"
       inkscape:connector-curvature="0"
       inkscape:export-xdpi="96"
       inkscape:export-ydpi="96" />
    <path
       style="fill:#1a1a1a;stroke:none;stroke-width:0.26458332px;stroke-linecap:butt;stroke-linejoin:miter;stroke-opacity:1"
       d="m 109.85075,11.411012 c 0,0 0.74511,31.588997 -15.875027,58.208333 -9.818807,15.726134 -31.749999,37.041665 -31.749999,37.041665 0,0 37.041666,-5.29167 52.916696,-31.749999 15.875,-26.458333 -5.29167,-63.499999 -5.29167,-63.499999 z"
       id="path3866"
       inkscape:connector-curvature="0"
       sodipodi:nodetypes="cscsc"
       inkscape:export-xdpi="96"
       inkscape:export-ydpi="96" />
    <path
       style="fill:#000000;stroke:none;stroke-width:0.26458332px;stroke-linecap:butt;stroke-linejoin:miter;stroke-opacity:1"
       d="m 121.1792,58.875007 c 0,0 5.29166,-15.875 15.87499,-15.875 10.58334,0 15.875,15.875 15.875,15.875 h 15.875 c 0,0 0,-21.166666 15.875,-15.875 15.875,5.291667 15.875,26.458333 0,31.75 -15.875,5.291667 -15.875,26.458333 -42.33333,52.916663 -26.45833,26.45834 -58.208358,47.625 -74.083358,52.91667 -15.875,5.29167 -21.166666,-10.58333 0,-21.16667 21.166667,-10.58333 42.333358,-26.45833 47.625028,-42.33333 5.29167,-15.875 -5.29167,-21.166667 -5.29167,-31.75 0,-10.583333 10.58334,-26.458333 10.58334,-26.458333 z"
       id="path3868"
       inkscape:connector-curvature="0"
       inkscape:export-xdpi="96"
       inkscape:export-ydpi="96" />
    <path
       style="fill:#000000;stroke:none;stroke-width:0.26458332px;stroke-linecap:butt;stroke-linejoin:miter;stroke-opacity:1"
       d="m 159.54377,131.63543 c 0,0 -19.14543,0.77205 -13.22916,18.52083 2.64583,7.9375 21.16667,29.10416 47.625,29.10417 7.9375,0 24.20991,-2.84925 13.22916,-23.8125 -14.55208,-27.78125 -47.625,-23.8125 -47.625,-23.8125 z"
       id="path3870"
       inkscape:connector-curvature="0"
       sodipodi:nodetypes="csssc"
       inkscape:export-xdpi="96"
       inkscape:export-ydpi="96" />
    <path
       style="fill:#000000;stroke:none;stroke-width:0.99999994"
       d="M 418 749.44922 C 362.6 749.44922 318 794.04922 318 849.44922 L 318 949.44922 C 318 1004.8492 362.6 1049.4492 418 1049.4492 L 578 1049.4492 C 633.4 1049.4492 678 1004.8492 678 949.44922 L 678 849.44922 C 678 794.04922 633.4 749.44922 578 749.44922 L 418 749.44922 z M 466.78711 869.44922 L 529.21289 869.44922 C 545.16077 869.44922 558 882.28845 558 898.23633 L 558 900.66211 C 558 916.60999 545.16077 929.44922 529.21289 929.44922 L 466.78711 929.44922 C 450.83923 929.44922 438 916.60999 438 900.66211 L 438 898.23633 C 438 882.28845 450.83923 869.44922 466.78711 869.44922 z "
       transform="matrix(0.26458333,0,0,0.26458333,0,-23)"
       id="rect3872"
       inkscape:export-xdpi="96"
       inkscape:export-ydpi="96" />
    <rect
       style="fill:#1a1a1a;stroke:none;stroke-width:0.26458332"
       id="rect3879"
       width="58.208324"
       height="58.208336"
       x="237.59576"
       y="11.250009"
       ry="29.104166"
       inkscape:export-xdpi="96"
       inkscape:export-ydpi="96" />
    <path
       style="fill:#000000;stroke:none;stroke-width:0.26458332px;stroke-linecap:butt;stroke-linejoin:miter;stroke-opacity:1"
       d="m 239.11005,79.118626 c 0,0 -16.54714,9.661035 -2.99776,22.562024 6.05947,5.76951 32.34418,15.77767 55.71216,3.36878 7.0104,-3.72267 20.04589,-13.870843 0.51598,-27.235629 -25.88173,-17.711493 -53.23038,1.304825 -53.23038,1.304825 z"
       id="path3870-9"
       inkscape:connector-curvature="0"
       sodipodi:nodetypes="csssc"
       inkscape:export-xdpi="96"
       inkscape:export-ydpi="96" />
    <path
       style="fill:#000000;stroke:none;stroke-width:0.26458332px;stroke-linecap:butt;stroke-linejoin:miter;stroke-opacity:1"
       d="m 269.34586,101.20834 c 0,0 -15.875,42.33334 -42.33333,63.5 -26.45834,21.16667 2.6969,12.38757 15.875,5.29167 34.39583,-18.52083 52.91666,-52.91667 58.20833,-68.79167 5.29167,-15.874993 -5.29167,-26.458326 -21.16667,-21.166659 -15.875,5.291666 -10.58333,21.166659 -10.58333,21.166659 z"
       id="path3899"
       inkscape:connector-curvature="0"
       sodipodi:nodetypes="cssssc"
       inkscape:export-xdpi="96"
       inkscape:export-ydpi="96" />
    <path
       style="fill:#000000;stroke:none;stroke-width:0.26458332px;stroke-linecap:butt;stroke-linejoin:miter;stroke-opacity:1"
       d="m 301.09586,148.83334 c 0,21.16667 5.29167,37.04167 -10.58333,31.75 -15.875,-5.29167 -21.16667,-10.58333 -21.16667,-5.29167 0,5.29167 15.875,79.37501 15.875,79.37501 h -43.65625 l 17.19792,-89.95834 c 31.75,-26.45833 41.4748,-42.09544 42.33333,-15.875 z"
       id="path3901"
       inkscape:connector-curvature="0"
       sodipodi:nodetypes="csscccc"
       inkscape:export-xdpi="96"
       inkscape:export-ydpi="96" />
    <path
       style="fill:#000000;stroke:none;stroke-width:1.47384584"
       d="M 1308 124.44922 L 1346.6504 337.8418 C 1227.9673 357.44022 1138 460.0439 1138 584.44922 L 1138 594.44922 C 1138 719.32608 1228.6494 822.23728 1348 841.27734 L 1348 849.44922 L 1313 1049.4492 L 1473 1049.4492 L 1428 849.44922 L 1428 841.27734 C 1547.3506 822.23728 1638 719.32608 1638 594.44922 L 1638 584.44922 C 1638 459.94228 1547.8856 357.27357 1429.0586 337.79492 L 1463 124.44922 L 1308 124.44922 z M 1385.959 369.07031 A 70.000009 70.000001 0 0 1 1455.959 439.07031 A 70.000009 70.000001 0 0 1 1403.6055 506.76172 C 1400.0554 520.08018 1399.3809 537.90152 1408 559.44922 C 1420.6753 591.13744 1456.6805 607.27147 1479.1211 614.48633 A 70.000009 70.000001 0 0 1 1505.959 609.07031 A 70.000009 70.000001 0 0 1 1575.959 679.07031 A 70.000009 70.000001 0 0 1 1505.959 749.07031 A 70.000009 70.000001 0 0 1 1435.959 679.07031 A 70.000009 70.000001 0 0 1 1441.3535 652.16602 C 1431.8862 631.43809 1411.8094 599.44922 1378 599.44922 C 1350.0972 599.44922 1336.8176 633.4635 1331.3223 654.06641 A 70.000009 70.000001 0 0 1 1335.959 679.07031 A 70.000009 70.000001 0 0 1 1265.959 749.07031 A 70.000009 70.000001 0 0 1 1195.959 679.07031 A 70.000009 70.000001 0 0 1 1265.959 609.07031 A 70.000009 70.000001 0 0 1 1276.123 609.89844 C 1294.5822 610.08349 1339.5522 605.56879 1358 559.44922 C 1367.9087 534.67733 1367.9958 517.27805 1365.5645 506.01758 A 70.000009 70.000001 0 0 1 1315.959 439.07031 A 70.000009 70.000001 0 0 1 1385.959 369.07031 z "
       transform="matrix(0.26458333,0,0,0.26458333,0,-23)"
       id="rect3872-1" />
    <path
       style="fill:#ffffff;stroke:none;stroke-width:0.26458332"
       id="path3937-7"
       sodipodi:type="arc"
       sodipodi:cx="237.59576"
       sodipodi:cy="188.52084"
       sodipodi:rx="10.583333"
       sodipodi:ry="7.9375"
       sodipodi:start="0"
       sodipodi:end="6.2797121"
       d="m 248.1791,188.52084 a 10.583333,7.9375 0 0 1 -10.57415,7.9375 10.583333,7.9375 0 0 1 -10.5925,-7.92371 10.583333,7.9375 0 0 1 10.55575,-7.95126 10.583333,7.9375 0 0 1 10.61083,7.9099 l -10.58327,0.0276 z"
       inkscape:export-xdpi="96"
       inkscape:export-ydpi="96" />
    <path
       style="fill:#000000;stroke:none;stroke-width:0.99999994"
       d="M 1868 161.44922 C 1757.2 161.44922 1668 250.64922 1668 361.44922 L 1668 881.44922 C 1668 971.32669 1726.6949 1046.9864 1808 1072.3574 L 1808 361.44922 C 1808 328.20921 1834.76 301.44922 1868 301.44922 L 2268 301.44922 C 2301.24 301.44922 2328 328.20921 2328 361.44922 L 2328 1072.3574 C 2409.3052 1046.9865 2468 971.32674 2468 881.44922 L 2468 361.44922 C 2468 250.64922 2378.8 161.44922 2268 161.44922 L 1868 161.44922 z "
       transform="matrix(0.26458333,0,0,0.26458333,0,-23)"
       id="rect4721"
       inkscape:export-xdpi="96"
       inkscape:export-ydpi="96" />
    <rect
       style="fill:#000000;stroke:none;stroke-width:0.26458332"
       id="rect4770"
       width="42.333332"
       height="31.75"
       x="494.24176"
       y="83.216675"
       ry="15.875"
       inkscape:export-xdpi="96"
       inkscape:export-ydpi="96" />
    <rect
       style="fill:#000000;stroke:none;stroke-width:0.26458332"
       id="rect4772"
       width="42.333332"
       height="31.75"
       x="557.74176"
       y="83.216675"
       ry="15.875"
       inkscape:export-xdpi="96"
       inkscape:export-ydpi="96" />
    <rect
       style="fill:#000000;stroke:none;stroke-width:0.26458332"
       id="rect4774"
       width="84.666664"
       height="21.166666"
       x="504.8251"
       y="157.29988"
       ry="10.583333"
       inkscape:export-xdpi="96"
       inkscape:export-ydpi="96" />
    <ellipse
       style="fill:#000000;stroke:none;stroke-width:0.24335402"
       id="path4776"
       cx="710.12695"
       cy="44.775047"
       rx="28.79986"
       ry="29.610739"
       inkscape:export-xdpi="96"
       inkscape:export-ydpi="96" />
    <path
       style="fill:#000000;stroke:#000000;stroke-width:0.24335402px;stroke-linecap:butt;stroke-linejoin:miter;stroke-opacity:1"
       d="m 710.12732,69.450661 c -23.99988,9.870246 -47.99979,34.545859 -47.99978,54.286369 1e-5,24.67562 62.39971,-34.545877 62.39971,-34.545877 0,0 -62.39971,54.286377 -62.39971,93.767357 0,39.48098 86.39958,-29.61074 86.39958,-29.61074 0,0 -37.172,-0.22867 -33.59982,-29.61074 4.79997,-39.481 47.99976,-24.675631 33.59982,-39.481001 -12.23759,-12.582134 -33.43161,-12.949867 -38.3998,-14.805368 -14.82697,-5.537504 0,0 0,0 z"
       id="path4778"
       inkscape:connector-curvature="0"
       sodipodi:nodetypes="cscscsssc"
       inkscape:export-xdpi="96"
       inkscape:export-ydpi="96" />
    <path
       style="fill:#000000;stroke:#000000;stroke-width:0.24335402px;stroke-linecap:butt;stroke-linejoin:miter;stroke-opacity:1"
       d="m 662.12754,212.56924 c 0,0 46.79978,-16.03915 75.59964,-40.71476 39.19808,-33.58477 -22.79988,50.58502 -65.99968,80.19575 -26.79137,18.36379 -4.79999,0 -4.79998,-19.74049 1e-5,-14.80537 -4.79998,-19.7405 -4.79998,-19.7405 z"
       id="path4782"
       inkscape:connector-curvature="0"
       sodipodi:nodetypes="csssc"
       inkscape:export-xdpi="96"
       inkscape:export-ydpi="96" />
    <path
       style="fill:#000000;stroke:#000000;stroke-width:0.24335402px;stroke-linecap:butt;stroke-linejoin:miter;stroke-opacity:1"
       d="M 773.72395,19.234096 751.59018,105.79866 818.42902,45.599255 Z"
       id="path4784"
       inkscape:connector-curvature="0"
       inkscape:export-xdpi="96"
       inkscape:export-ydpi="96" />
    <path
       style="fill:#000000;stroke:#000000;stroke-width:0.24335402px;stroke-linecap:butt;stroke-linejoin:miter;stroke-opacity:1"
       d="m 878.41667,138.25001 c -100.54166,-10.58333 -128.61967,13.77265 -127,116.41667 0,0 -17.32354,-116.81567 37.04166,-148.16667 89.95834,-26.458334 116.41667,-37.041668 89.95834,-10.583334 -17.48048,17.480474 -17.7003,59.276554 0,42.333334 z"
       id="path4790"
       inkscape:connector-curvature="0"
       sodipodi:nodetypes="cccsc"
       inkscape:export-xdpi="96"
       inkscape:export-ydpi="96" />
    <path
       style="fill:#000000;stroke:#000000;stroke-width:0.24335402px;stroke-linecap:butt;stroke-linejoin:miter;stroke-opacity:1"
       d="M 863.19739,90.606041 Z"
       id="path4792"
       inkscape:connector-curvature="0"
       inkscape:export-xdpi="96"
       inkscape:export-ydpi="96" />
    <path
       style="fill:#000000;stroke:none;stroke-width:1.10541785"
       d="M 3012.8848 699.83594 C 2945.7174 699.83594 2891.6445 753.91072 2891.6445 821.07812 L 2891.6445 948.20898 C 2891.6445 1015.3764 2945.7174 1069.4492 3012.8848 1069.4492 L 3178.7598 1069.4492 C 3245.9272 1069.4492 3300 1015.3764 3300 948.20898 L 3300 821.07812 C 3300 753.91072 3245.9272 699.83594 3178.7598 699.83594 L 3012.8848 699.83594 z M 3070 829.44922 L 3130 829.44922 C 3157.7 829.44922 3180 851.74922 3180 879.44922 C 3180 907.14922 3157.7 929.44922 3130 929.44922 L 3070 929.44922 C 3042.3 929.44922 3020 907.14922 3020 879.44922 C 3020 851.74922 3042.3 829.44922 3070 829.44922 z "
       transform="matrix(0.26458333,0,0,0.26458333,0,-23)"
       id="rect3872-0"
       inkscape:export-xdpi="96"
       inkscape:export-ydpi="96" />
    <rect
       style="fill:#241c1c;stroke:none;stroke-width:0.26458332"
       id="rect3862-2"
       width="52.916668"
       height="52.916668"
       x="820.20831"
       y="27.125"
       ry="26.458334"
       inkscape:export-xdpi="96"
       inkscape:export-ydpi="96" />
    <rect
       style="fill:#000000;stroke:none;stroke-width:0.26458332"
       id="rect3862-2-6"
       width="52.916668"
       height="52.916668"
       x="832.11456"
       y="106.5"
       ry="26.458334"
       inkscape:export-xdpi="96"
       inkscape:export-ydpi="96" />
  </g>
</svg>
